<svg version="1.1" viewBox="0.0 0.0 1232.6771653543308 517.2073490813648" fill="none" stroke="none" stroke-linecap="square" stroke-miterlimit="10" xmlns:xlink="http://www.w3.org/1999/xlink" xmlns="http://www.w3.org/2000/svg"><clipPath id="p.0"><path d="m0 0l1232.6771 0l0 517.20734l-1232.6771 0l0 -517.20734z" clip-rule="nonzero"/></clipPath><g clip-path="url(#p.0)"><path fill="#000000" fill-opacity="0.0" d="m0 0l1232.6771 0l0 517.20734l-1232.6771 0z" fill-rule="evenodd"/><path fill="#000000" d="m279.45374 233.61845c0.57470703 -19.529587 -3.4463806 -38.485092 -11.488007 -55.717087c-6.8927917 -14.934402 -17.806091 -26.996506 -31.59169 -36.186905c-13.785599 -8.6163025 -30.443497 -13.211502 -47.1008 -12.636795c-17.231995 -0.57470703 -33.3152 4.0204926 -47.1008 13.785599c-9.765091 6.8927917 -16.657898 16.08319 -21.827194 26.422394l0 -129.2403l-32.741104 0l0 297.5392l32.166397 -0.5740967l0 -37.336304c5.1699066 10.339203 12.062698 19.529602 21.82721 26.422394c13.785599 9.190399 30.443497 14.360291 47.1008 13.785614c16.657898 0 33.3152 -4.595215 47.1008 -13.210907c14.360291 -9.190399 25.27359 -22.401917 32.16638 -37.336304c8.041626 -17.231995 12.062714 -36.186905 11.488007 -55.716507zm-50.547195 58.58882c-10.9133 13.7855835 -28.145294 21.252472 -45.951996 20.678375c-20.103699 0.5740967 -35.61281 -6.318695 -45.951996 -20.104279c-10.913307 -13.785614 -16.083206 -32.74051 -16.083206 -58.014114c0 -24.699493 5.169899 -43.654404 16.083206 -57.440002c10.913895 -13.785599 26.422394 -20.67839 46.526688 -20.67839c17.23201 -0.57470703 34.464005 6.8927917 45.95201 20.103699c10.9133 13.211502 16.657288 32.166397 16.657288 56.86589c0 25.273605 -5.743988 44.803207 -17.231995 58.58882z" fill-rule="evenodd"/><path fill="#000000" d="m477.04675 337.58398l32.16638 0l0 -203.3376l-32.16638 0l0 35.038696c-5.1693115 -10.339203 -12.062103 -19.529602 -21.82721 -26.42241c-14.359711 -9.765091 -31.017609 -14.360291 -47.674896 -13.785599c-16.657898 -0.5746918 -33.315216 4.020508 -47.1008 13.210907c-13.785614 9.190399 -24.699524 22.401901 -31.592316 37.336304c-7.4668884 17.231995 -11.488007 36.761597 -10.9133 55.71649c-0.57470703 19.529602 2.871704 38.485092 10.9133 55.717117c6.8927917 14.934387 17.806702 27.571198 31.592316 36.18689c14.35968 8.6163025 31.017578 13.211487 47.674896 12.63678c16.657898 0.57470703 33.315186 -4.0204773 47.1008 -13.7855835c9.765106 -6.8927917 16.657898 -16.08319 21.82721 -26.422394l0 37.9104zm-16.657318 -45.37732c-10.91391 13.785614 -28.145905 21.82721 -45.951996 20.678406c-17.806702 1.1488037 -35.038696 -6.318695 -47.1008 -20.678406c-10.91391 -13.7855835 -16.657898 -32.74109 -16.657898 -57.439987c0 -24.699509 5.743988 -44.229095 16.657898 -58.014694c11.488007 -13.785614 28.720001 -21.82721 46.526093 -20.678406c17.806702 -0.5740967 34.46402 6.318695 45.951996 20.104294c11.488007 13.785599 16.657898 32.74051 16.657898 58.0141c0 25.273605 -5.1698914 44.22911 -16.08319 58.014694z" fill-rule="evenodd"/><path fill="#000000" d="m666.02466 226.72502l-34.46399 -8.6163025c-9.19043 -1.1487885 -17.231995 -5.1692963 -24.124817 -10.9133c-4.595215 -5.1698914 -7.4674683 -12.062698 -6.8928223 -19.529587c0 -9.190414 4.595215 -17.806702 12.062134 -22.976013c9.765076 -6.318695 21.253113 -9.190399 33.315186 -8.6163025c10.91394 0 21.253113 1.7235107 31.592285 5.7440033c10.91333 4.021103 20.678406 10.339203 29.294739 17.806702l10.913269 -23.550705c-9.190369 -8.615692 -20.10431 -15.508499 -32.16638 -19.529587c-12.63678 -4.5951996 -26.422424 -6.892807 -40.208008 -6.892807c-14.360291 -0.5740967 -28.145874 2.2976074 -41.35681 7.467499c-10.913879 4.5951996 -20.10431 12.062103 -26.99707 21.252502c-6.318115 9.190399 -9.764526 20.104294 -9.764526 31.5923c-0.57470703 12.636795 4.595215 25.273605 13.785645 34.464005c10.913879 10.339203 24.124756 17.231995 39.059143 20.103699l34.46405 8.041595c9.190369 1.1488037 18.380798 5.1698914 26.422363 10.91391c5.1693115 4.5951843 8.616333 11.488007 8.041626 18.954895c0 9.190399 -4.021118 17.806702 -12.062683 22.975983c-10.91333 6.3187256 -22.976013 8.6163025 -35.038147 8.041626c-12.63678 0 -25.848267 -1.7229004 -37.9104 -5.7440186c-11.487976 -4.5951843 -22.975952 -10.339203 -32.74109 -18.380798l-10.913269 24.124817c19.529602 17.806702 46.526062 26.422394 80.99005 26.422394c24.699524 0 43.65442 -5.1693115 59.73822 -14.934418c13.784973 -9.764496 21.8266 -25.847687 21.252502 -42.505585c0 -13.210907 -4.595215 -25.847717 -13.7855835 -35.61281c-9.19043 -9.190399 -23.55072 -16.08319 -42.505615 -20.103699z" fill-rule="evenodd"/><path fill="#000000" d="m929.67456 289.335c-9.765137 7.4668884 -20.10431 13.7855835 -31.592346 17.806091c-10.913269 4.021118 -22.401245 5.7440186 -33.889282 5.7440186c-22.976013 0 -40.208008 -6.8928223 -51.695984 -20.103699c-12.062683 -12.63681 -17.231995 -32.74112 -17.806702 -58.01471l148.19519 0l0 -6.3181c0.57470703 -18.380798 -2.871704 -36.761612 -10.339172 -53.41951c-6.318115 -13.785599 -16.657349 -25.847702 -29.868835 -33.889297c-14.35968 -8.6163025 -30.442871 -12.636795 -46.526062 -12.062698c-17.806702 -0.5740967 -35.038757 4.021103 -49.973145 13.211502c-14.35968 9.190399 -25.847656 21.827194 -33.315186 37.335693c-8.041626 17.23201 -12.63678 36.1875 -12.062073 55.14241c-0.57470703 19.529587 4.020447 39.059204 12.63678 56.2912c7.466919 15.509094 20.103699 28.145905 35.038086 36.1875c17.231995 8.615692 35.612793 13.210907 54.5683 12.63681c14.359741 0 28.720032 -2.8723145 42.505615 -7.4675293c12.63678 -4.0204773 24.124817 -10.339172 33.889282 -19.529572l-9.764465 -23.55011zm-118.326416 -113.7312c10.913269 -13.785599 28.145325 -21.253098 45.952026 -20.678406c18.954895 0 33.315186 6.3181 43.07965 18.954895c7.4675293 9.765106 12.062744 22.976013 13.211548 39.63391l-117.75232 0c2.8723145 -15.5091095 7.4674683 -28.145905 15.509094 -37.9104z" fill-rule="evenodd"/><path fill="#000000" d="m1146.7976 246.82936l0 -197.0195l-26.99707 0l-138.43011 199.8912l0 24.699493l132.112 0l0 63.18402l33.315186 0l0 -63.18402l44.229126 0l0 -27.571182l-44.229126 0zm-130.96313 0l97.64795 -140.7283l0 140.7283l-97.64795 0z" fill-rule="evenodd"/><path fill="#000000" d="m141.5977 408.2355c4.020508 -0.5740967 8.041595 0.5740967 11.488007 1.7234802c4.0204926 1.1482239 8.041595 3.4464111 10.9133 6.318115l3.4463959 -6.318115c-2.871704 -2.872284 -6.892807 -5.1698914 -10.9133 -6.8927917c-4.5951996 -1.7235107 -9.765106 -2.2981873 -14.360306 -2.2981873c-6.3181 -0.5740967 -12.636795 1.1493835 -18.380798 4.5951843c-5.1692963 3.4464111 -9.764496 8.042206 -12.062096 13.211517c-5.7440033 13.210876 -5.7440033 27.571198 0 40.782684c2.8716965 5.7440186 6.8927994 10.339203 12.062096 13.210907c5.7440033 3.4464111 12.062698 4.5951843 18.380798 4.5951843c5.1699066 0 9.765106 -0.5740967 14.360306 -2.297577c4.0204926 -1.1488037 7.4669037 -4.020508 10.9133 -6.8928223l-3.4463959 -6.3180847c-3.4464111 2.2976074 -6.892807 4.5946045 -10.9133 6.3180847c-3.4464111 1.1488037 -7.467499 1.7235107 -11.488007 1.7235107c-6.8927917 0.5740967 -14.360298 -2.2976074 -18.955498 -8.041595c-5.169304 -6.893402 -7.4669037 -14.934387 -6.8927994 -22.976013c-0.5741043 -8.041595 2.2975998 -16.083801 6.8927994 -22.401886c4.5951996 -5.7440186 11.487999 -8.615692 18.955498 -8.041595z" fill-rule="evenodd"/><path fill="#000000" d="m310.4713 401.91736l-32.74109 74.672l8.6163025 0l8.615692 -19.529602l39.059204 0l8.6163025 19.529602l8.615692 0l-32.74051 -74.672l-8.041595 0zm-12.63681 48.249603l16.657318 -38.485107l16.657898 38.485107l-33.315216 0z" fill-rule="evenodd"/><path fill="#000000" d="m494.27878 401.91742l-29.868805 0l0 74.672l8.6163025 -0.57470703l0 -32.74048l21.252502 0c6.318695 0.5740967 12.63681 -1.7235107 17.806671 -5.7440186l0.5740967 -0.57470703c8.041626 -8.041595 8.041626 -21.827179 -0.5740967 -29.868805c-5.169861 -4.0204773 -11.487976 -5.743988 -17.806671 -5.169281zm12.062714 31.017609c-3.4464111 2.8716736 -8.041626 4.0204773 -12.637421 3.4463806l-20.677795 0l0 -26.9971l20.677795 0c4.5957947 -0.5740967 9.1910095 0.57470703 12.637421 3.4464111c5.7439575 5.1698914 5.7439575 14.360291 0 20.10431z" fill-rule="evenodd"/><path fill="#000000" d="m635.0071 401.91736l8.616272 0l0 74.672l-8.616272 0z" fill-rule="evenodd"/><path fill="#000000" d="m757.9288 409.38486l25.848267 0l0 67.2045l9.19043 0l0 -67.2045l25.847656 0l0 -7.467499l-60.886353 0z" fill-rule="evenodd"/><path fill="#000000" d="m958.3945 401.91736l-32.74109 74.672l8.616272 0l8.615723 -19.529602l39.059204 0l8.616272 19.529602l8.615723 0l-32.74048 -74.672l-8.041626 0zm-12.63678 48.249603l16.657288 -38.485107l16.657898 38.485107l-33.315186 0z" fill-rule="evenodd"/><path fill="#000000" d="m1120.3754 401.91736l-8.616333 0l0 74.672l45.952026 0l0 -7.467499l-37.335693 0z" fill-rule="evenodd"/><path fill="#558df6" d="m41.65214 40.04536l29.868801 0l0 71.80031l-29.868801 0z" fill-rule="evenodd"/><path fill="#8bb3f8" d="m41.65214 117.01494l29.868801 0l0 68.92799l-29.868801 0z" fill-rule="evenodd"/><path fill="#adc9fa" d="m41.65214 191.68694l29.868801 0l0 69.5027l-29.868801 0z" fill-rule="evenodd"/><path fill="#2b69f5" d="m41.65214 266.35895l29.868801 0l0 70.65149l-29.868801 0z" fill-rule="evenodd"/></g></svg>